<?xml version="1.0" encoding="UTF-8" standalone="no"?>
<!DOCTYPE svg PUBLIC "-//W3C//DTD SVG 1.1//EN" "http://www.w3.org/Graphics/SVG/1.1/DTD/svg11.dtd">
<svg width="100%" height="100%" viewBox="0 0 8609 9080" version="1.1" xmlns="http://www.w3.org/2000/svg" xmlns:xlink="http://www.w3.org/1999/xlink" xml:space="preserve" xmlns:serif="http://www.serif.com/" style="fill-rule:evenodd;clip-rule:evenodd;stroke-linejoin:round;stroke-miterlimit:2;">
    <g transform="matrix(4.16667,0,0,4.16667,0,0)">
        <path d="M1702.16,689.089L1702.16,543.585L1643.96,543.585L1643.96,470.831L1585.76,470.831L1585.76,398.078L1527.56,398.078L1527.56,325.328L1411.16,325.328L1411.16,252.574L1294.75,252.574L1294.75,179.824L770.937,179.824L770.937,252.574L654.535,252.574L654.535,325.328L538.128,325.328L538.128,398.078L479.929,398.078L479.929,470.831L421.726,470.831L421.726,543.585L363.522,543.585L363.522,689.089L305.324,689.089L305.324,1489.36L363.522,1489.36L363.522,1634.87L421.726,1634.87L421.726,1707.62L479.929,1707.62L479.929,1780.37L538.128,1780.37L538.128,1853.12L654.535,1853.12L654.535,1925.88L770.937,1925.88L770.937,1998.63L1294.75,1998.63L1294.75,1925.88L1411.16,1925.88L1411.16,1853.12L1527.56,1853.12L1527.56,1780.37L1585.76,1780.37L1585.76,1707.62L1643.96,1707.62L1643.96,1634.87L1702.16,1634.87L1702.16,1489.36L1760.37,1489.36L1760.37,689.089L1702.16,689.089Z" style="fill:rgb(249,186,55);fill-rule:nonzero;"/>
        <rect x="770.937" y="1925.88" width="523.813" height="72.75" style="fill:rgb(191,146,42);fill-rule:nonzero;"/>
        <rect x="1294.75" y="1853.12" width="116.41" height="72.76" style="fill:rgb(191,146,42);fill-rule:nonzero;"/>
        <rect x="654.535" y="1853.12" width="116.402" height="72.76" style="fill:rgb(191,146,42);fill-rule:nonzero;"/>
        <rect x="1469.35" y="1780.37" width="58.21" height="72.75" style="fill:rgb(191,146,42);fill-rule:nonzero;"/>
        <rect x="1411.16" y="1780.37" width="58.19" height="72.75" style="fill:rgb(205,155,45);fill-rule:nonzero;"/>
        <rect x="538.128" y="1780.37" width="116.407" height="72.75" style="fill:rgb(191,146,42);fill-rule:nonzero;"/>
        <rect x="1527.56" y="1707.62" width="58.2" height="72.75" style="fill:rgb(191,146,42);fill-rule:nonzero;"/>
        <rect x="479.929" y="1707.62" width="58.199" height="72.75" style="fill:rgb(191,146,42);fill-rule:nonzero;"/>
        <rect x="1585.76" y="1634.87" width="58.2" height="72.75" style="fill:rgb(191,146,42);fill-rule:nonzero;"/>
        <rect x="829.141" y="1634.87" width="407.409" height="72.75" style="fill:rgb(191,146,42);fill-rule:nonzero;"/>
        <rect x="479.929" y="1634.87" width="58.199" height="72.75" style="fill:rgb(255,207,103);fill-rule:nonzero;"/>
        <rect x="421.726" y="1634.87" width="58.203" height="72.75" style="fill:rgb(191,146,42);fill-rule:nonzero;"/>
        <rect x="1585.76" y="1562.11" width="58.2" height="72.76" style="fill:rgb(244,183,53);fill-rule:nonzero;"/>
        <path d="M1585.76,1562.11L1643.96,1562.11L1643.96,1416.61L1702.16,1416.61L1702.16,761.839L1643.96,761.839L1643.96,616.335L1585.76,616.335L1585.76,543.585L1527.56,543.585L1527.56,470.831L1411.16,470.831L1411.16,398.078L1236.55,398.078L1236.55,325.328L1003.75,325.328L1003.75,398.078L829.141,398.078L829.141,470.831L1236.55,470.831L1236.55,543.585L1352.96,543.585L1352.96,616.335L1411.16,616.335L1411.16,689.089L1469.35,689.089L1469.35,761.839L1527.56,761.839L1527.56,1416.61L1469.35,1416.61L1469.35,1489.36L1411.16,1489.36L1411.16,1562.11L1352.96,1562.11L1352.96,1634.87L1236.55,1634.87L1236.55,1707.62L829.141,1707.62L829.141,1634.87L712.733,1634.87L712.733,1562.11L654.535,1562.11L654.535,1489.36L596.331,1489.36L596.331,1416.61L538.128,1416.61L538.128,761.839L479.929,761.839L479.929,1634.87L538.128,1634.87L538.128,1780.37L654.535,1780.37L654.535,1853.12L770.937,1853.12L770.937,1925.88L1294.75,1925.88L1294.75,1853.12L1411.16,1853.12L1411.16,1780.37L1527.56,1780.37L1527.56,1707.62L1585.76,1707.62L1585.76,1562.11Z" style="fill:rgb(249,186,55);fill-rule:nonzero;"/>
        <rect x="1294.75" y="1562.11" width="58.21" height="72.76" style="fill:rgb(191,146,42);fill-rule:nonzero;"/>
        <rect x="1236.55" y="1562.11" width="58.2" height="72.76" style="fill:rgb(205,156,45);fill-rule:nonzero;"/>
        <rect x="829.141" y="1562.11" width="407.409" height="72.76" style="fill:rgb(222,165,46);fill-rule:nonzero;"/>
        <rect x="770.937" y="1562.11" width="58.204" height="72.76" style="fill:rgb(205,155,45);fill-rule:nonzero;"/>
        <rect x="712.733" y="1562.11" width="58.204" height="72.76" style="fill:rgb(191,146,42);fill-rule:nonzero;"/>
        <rect x="421.726" y="1562.11" width="58.203" height="72.76" style="fill:rgb(238,189,83);fill-rule:nonzero;"/>
        <rect x="1643.96" y="1489.36" width="58.2" height="145.51" style="fill:rgb(191,146,42);fill-rule:nonzero;"/>
        <rect x="1352.96" y="1489.36" width="58.2" height="72.75" style="fill:rgb(191,146,42);fill-rule:nonzero;"/>
        <rect x="1178.35" y="1489.36" width="58.2" height="72.75" style="fill:rgb(242,182,52);fill-rule:nonzero;"/>
        <rect x="712.733" y="1489.36" width="58.204" height="72.75" style="fill:rgb(222,165,46);fill-rule:nonzero;"/>
        <rect x="654.535" y="1489.36" width="58.198" height="72.75" style="fill:rgb(191,146,42);fill-rule:nonzero;"/>
        <rect x="363.522" y="1489.36" width="58.204" height="145.51" style="fill:rgb(191,146,42);fill-rule:nonzero;"/>
        <rect x="1702.16" y="1416.61" width="58.21" height="72.75" style="fill:rgb(203,154,45);fill-rule:nonzero;"/>
        <rect x="1643.96" y="1416.61" width="58.2" height="72.75" style="fill:rgb(247,184,54);fill-rule:nonzero;"/>
        <rect x="1411.16" y="1416.61" width="58.19" height="72.75" style="fill:rgb(191,146,42);fill-rule:nonzero;"/>
        <rect x="596.331" y="1416.61" width="58.204" height="72.75" style="fill:rgb(191,146,42);fill-rule:nonzero;"/>
        <rect x="421.726" y="1416.61" width="58.203" height="145.5" style="fill:rgb(255,207,103);fill-rule:nonzero;"/>
        <rect x="363.522" y="1416.61" width="58.204" height="72.75" style="fill:rgb(242,193,88);fill-rule:nonzero;"/>
        <path d="M1178.35,1343.86L1120.15,1343.86L1120.15,689.089L887.339,689.089L887.339,761.839L1061.94,761.839L1061.94,1416.61L1003.75,1416.61L1003.75,834.592L887.339,834.592L887.339,761.839L829.141,761.839L829.141,907.346L945.542,907.346L945.542,1343.86L887.339,1343.86L887.339,1489.36L1178.35,1489.36L1178.35,1343.86Z" style="fill:rgb(191,146,42);fill-rule:nonzero;"/>
        <rect x="538.128" y="1343.86" width="58.203" height="72.75" style="fill:rgb(205,155,45);fill-rule:nonzero;"/>
        <rect x="305.324" y="761.839" width="58.198" height="727.521" style="fill:rgb(191,146,42);fill-rule:nonzero;"/>
        <path d="M1469.35,1416.61L1469.35,1198.35L1411.16,1198.35L1411.16,1343.86L1352.96,1343.86L1352.96,1416.61L1294.75,1416.61L1294.75,1489.36L1236.55,1489.36L1236.55,1562.11L1352.96,1562.11L1352.96,1489.36L1411.16,1489.36L1411.16,1416.61L1469.35,1416.61Z" style="fill:rgb(222,165,46);fill-rule:nonzero;"/>
        <rect x="538.128" y="834.592" width="58.203" height="509.268" style="fill:rgb(191,146,42);fill-rule:nonzero;"/>
        <rect x="1411.16" y="1125.6" width="58.19" height="72.75" style="fill:rgb(225,169,47);fill-rule:nonzero;"/>
        <rect x="1411.16" y="907.346" width="58.19" height="218.254" style="fill:rgb(225,169,47);fill-rule:nonzero;"/>
        <rect x="421.726" y="1052.85" width="58.203" height="363.76" style="fill:rgb(255,204,96);fill-rule:nonzero;"/>
        <rect x="421.726" y="980.096" width="58.203" height="72.754" style="fill:rgb(255,204,98);fill-rule:nonzero;"/>
        <rect x="1469.35" y="834.592" width="58.21" height="582.018" style="fill:rgb(191,146,42);fill-rule:nonzero;"/>
        <rect x="1411.16" y="834.592" width="58.19" height="72.754" style="fill:rgb(224,169,47);fill-rule:nonzero;"/>
        <rect x="1702.16" y="761.839" width="58.21" height="654.771" style="fill:rgb(191,146,42);fill-rule:nonzero;"/>
        <rect x="1469.35" y="761.839" width="58.21" height="72.753" style="fill:rgb(205,155,45);fill-rule:nonzero;"/>
        <rect x="1411.16" y="761.839" width="58.19" height="72.753" style="fill:rgb(217,163,46);fill-rule:nonzero;"/>
        <path d="M887.339,834.592L1003.75,834.592L1003.75,1416.61L1061.94,1416.61L1061.94,761.839L887.339,761.839L887.339,834.592Z" style="fill:rgb(249,186,55);fill-rule:nonzero;"/>
        <rect x="538.128" y="761.839" width="58.203" height="72.753" style="fill:rgb(215,162,47);fill-rule:nonzero;"/>
        <rect x="1702.16" y="689.089" width="58.21" height="72.75" style="fill:rgb(211,168,69);fill-rule:nonzero;"/>
        <rect x="1643.96" y="689.089" width="58.2" height="72.75" style="fill:rgb(237,178,53);fill-rule:nonzero;"/>
        <rect x="1411.16" y="689.089" width="58.19" height="72.75" style="fill:rgb(191,146,42);fill-rule:nonzero;"/>
        <rect x="596.331" y="689.089" width="58.204" height="72.75" style="fill:rgb(191,146,42);fill-rule:nonzero;"/>
        <rect x="538.128" y="689.089" width="58.203" height="72.75" style="fill:rgb(249,186,55);fill-rule:nonzero;"/>
        <rect x="363.522" y="689.089" width="58.204" height="72.75" style="fill:rgb(232,183,75);fill-rule:nonzero;"/>
        <rect x="305.324" y="689.089" width="58.198" height="72.75" style="fill:rgb(211,168,69);fill-rule:nonzero;"/>
        <rect x="1643.96" y="616.335" width="58.2" height="72.754" style="fill:rgb(191,146,42);fill-rule:nonzero;"/>
        <rect x="1352.96" y="616.335" width="58.2" height="72.754" style="fill:rgb(191,146,42);fill-rule:nonzero;"/>
        <rect x="654.535" y="616.335" width="58.198" height="72.754" style="fill:rgb(191,146,42);fill-rule:nonzero;"/>
        <path d="M654.535,689.089L654.535,616.335L712.733,616.335L712.733,543.585L596.331,543.585L596.331,689.089L654.535,689.089Z" style="fill:rgb(249,186,55);fill-rule:nonzero;"/>
        <rect x="538.128" y="616.335" width="58.203" height="72.754" style="fill:rgb(251,191,67);fill-rule:nonzero;"/>
        <rect x="363.522" y="616.335" width="58.204" height="72.754" style="fill:rgb(191,146,42);fill-rule:nonzero;"/>
        <rect x="1643.96" y="543.585" width="58.2" height="72.75" style="fill:rgb(203,154,45);fill-rule:nonzero;"/>
        <rect x="1585.76" y="543.585" width="58.2" height="72.75" style="fill:rgb(225,169,49);fill-rule:nonzero;"/>
        <rect x="1236.55" y="543.585" width="116.41" height="72.75" style="fill:rgb(191,146,42);fill-rule:nonzero;"/>
        <rect x="712.733" y="543.585" width="116.408" height="72.75" style="fill:rgb(191,146,42);fill-rule:nonzero;"/>
        <path d="M479.929,616.335L421.726,616.335L421.726,761.839L363.522,761.839L363.522,1416.61L421.726,1416.61L421.726,980.096L479.929,980.096L479.929,761.839L538.128,761.839L538.128,616.335L596.331,616.335L596.331,543.585L654.535,543.585L654.535,470.831L770.937,470.831L770.937,398.078L945.542,398.078L945.542,325.328L1294.75,325.328L1294.75,252.574L770.937,252.574L770.937,325.328L654.535,325.328L654.535,398.078L596.331,398.078L596.331,470.831L479.929,470.831L479.929,616.335Z" style="fill:rgb(255,207,103);fill-rule:nonzero;"/>
        <rect x="421.726" y="543.585" width="58.203" height="72.75" style="fill:rgb(218,168,59);fill-rule:nonzero;"/>
        <rect x="363.522" y="543.585" width="58.204" height="72.75" style="fill:rgb(209,164,63);fill-rule:nonzero;"/>
        <rect x="1585.76" y="470.831" width="58.2" height="72.754" style="fill:rgb(191,146,42);fill-rule:nonzero;"/>
        <rect x="1527.56" y="470.831" width="58.2" height="72.754" style="fill:rgb(254,198,82);fill-rule:nonzero;"/>
        <rect x="829.141" y="470.831" width="407.409" height="72.754" style="fill:rgb(191,146,42);fill-rule:nonzero;"/>
        <rect x="712.733" y="470.831" width="116.408" height="72.754" style="fill:rgb(249,186,55);fill-rule:nonzero;"/>
        <rect x="654.535" y="470.831" width="58.198" height="72.754" style="fill:rgb(254,198,85);fill-rule:nonzero;"/>
        <rect x="421.726" y="470.831" width="58.203" height="72.754" style="fill:rgb(191,146,42);fill-rule:nonzero;"/>
        <rect x="1527.56" y="398.078" width="58.2" height="72.753" style="fill:rgb(191,146,42);fill-rule:nonzero;"/>
        <rect x="1469.35" y="398.078" width="58.21" height="72.753" style="fill:rgb(250,201,97);fill-rule:nonzero;"/>
        <rect x="1411.16" y="398.078" width="58.19" height="72.753" style="fill:rgb(251,192,68);fill-rule:nonzero;"/>
        <rect x="770.937" y="398.078" width="58.204" height="72.753" style="fill:rgb(251,192,69);fill-rule:nonzero;"/>
        <rect x="538.128" y="398.078" width="58.203" height="72.753" style="fill:rgb(240,192,88);fill-rule:nonzero;"/>
        <rect x="479.929" y="398.078" width="58.199" height="72.753" style="fill:rgb(191,146,42);fill-rule:nonzero;"/>
        <rect x="1411.16" y="325.328" width="116.4" height="72.75" style="fill:rgb(191,146,42);fill-rule:nonzero;"/>
        <rect x="1294.75" y="325.328" width="116.41" height="72.75" style="fill:rgb(255,207,103);fill-rule:nonzero;"/>
        <rect x="1236.55" y="325.328" width="58.2" height="72.75" style="fill:rgb(254,198,84);fill-rule:nonzero;"/>
        <rect x="945.542" y="325.328" width="58.208" height="72.75" style="fill:rgb(254,198,85);fill-rule:nonzero;"/>
        <rect x="538.128" y="325.328" width="116.407" height="72.75" style="fill:rgb(191,146,42);fill-rule:nonzero;"/>
        <rect x="1294.75" y="252.574" width="116.41" height="72.754" style="fill:rgb(191,146,42);fill-rule:nonzero;"/>
        <rect x="654.535" y="252.574" width="116.402" height="72.754" style="fill:rgb(191,146,42);fill-rule:nonzero;"/>
        <rect x="770.937" y="179.824" width="523.813" height="72.75" style="fill:rgb(191,146,42);fill-rule:nonzero;"/>
    </g>
</svg>
