<?xml version="1.0" encoding="UTF-8" standalone="no"?>
<!DOCTYPE svg PUBLIC "-//W3C//DTD SVG 1.1//EN" "http://www.w3.org/Graphics/SVG/1.1/DTD/svg11.dtd">
<svg width="100%" height="100%" viewBox="0 0 50 50" version="1.1" xmlns="http://www.w3.org/2000/svg" xmlns:xlink="http://www.w3.org/1999/xlink" xml:space="preserve" xmlns:serif="http://www.serif.com/" style="fill-rule:evenodd;clip-rule:evenodd;stroke-linejoin:round;stroke-miterlimit:2;">
    <g id="Calendar" transform="matrix(1,0,0,1,-641,-178)">
        <g transform="matrix(1,0,0,1,47,0)">
            <path d="M634.532,182C635.982,182 637.373,182.576 638.398,183.602C639.424,184.627 640,186.018 640,187.468L640,218.532C640,219.982 639.424,221.373 638.398,222.398C637.373,223.424 635.982,224 634.532,224L603.468,224C602.018,224 600.627,223.424 599.602,222.398C598.576,221.373 598,219.982 598,218.532L598,187.468C598,186.018 598.576,184.627 599.602,183.602C600.627,182.576 602.018,182 603.468,182L634.532,182Z" style="fill:rgb(251,254,249);"/>
        </g>
        <g transform="matrix(1,0,0,1,5.41164,13.9487)">
            <g transform="matrix(16,0,0,16,669.725,197.051)">
            </g>
            <text x="651.241px" y="197.051px" style="font-family:'Futura-Medium', 'Futura', sans-serif;font-weight:500;font-size:16px;">1<tspan x="659.85px " y="197.051px ">2</tspan></text>
        </g>
        <g transform="matrix(1.07692,0,0,0.833333,1,35.3333)">
            <path d="M631.892,176C634.713,176 637,178.955 637,182.601L637,185L598,185L598,182.535C598,180.802 598.533,179.14 599.481,177.914C600.429,176.688 601.716,176 603.057,176C610.518,176 624.401,176 631.892,176Z" style="fill:rgb(253,20,38);"/>
        </g>
    </g>
</svg>
