<?xml version="1.0" encoding="UTF-8" standalone="no"?>
<!DOCTYPE svg PUBLIC "-//W3C//DTD SVG 1.1//EN" "http://www.w3.org/Graphics/SVG/1.1/DTD/svg11.dtd">
<svg width="100%" height="100%" viewBox="0 0 50 50" version="1.1" xmlns="http://www.w3.org/2000/svg" xmlns:xlink="http://www.w3.org/1999/xlink" xml:space="preserve" xmlns:serif="http://www.serif.com/" style="fill-rule:evenodd;clip-rule:evenodd;stroke-linejoin:round;stroke-miterlimit:2;">
    <g id="Podcasts" transform="matrix(1,0,0,1,-569.872,-627.161)">
        <g transform="matrix(1,0,0,1,-24.1276,449.161)">
            <path d="M628.621,182C631.639,182 634.533,183.199 636.667,185.333C638.801,187.467 640,190.361 640,193.379L640,212.621C640,215.639 638.801,218.533 636.667,220.667C634.533,222.801 631.639,224 628.621,224L609.379,224C606.361,224 603.467,222.801 601.333,220.667C599.199,218.533 598,215.639 598,212.621L598,193.379C598,190.361 599.199,187.467 601.333,185.333C603.467,183.199 606.361,182 609.379,182L628.621,182Z" style="fill:rgb(124,0,230);"/>
        </g>
        <g transform="matrix(0.360005,0,0,0.360005,576.872,634.16)">
            <path d="M50,6.25C37.266,6.246 25.27,12.215 17.59,22.371C9.91,32.527 7.442,45.699 10.918,57.949C14.395,70.199 23.414,80.109 35.281,84.719L34.969,81.235C24.367,76.598 16.5,67.325 13.653,56.106C10.805,44.891 13.297,32.989 20.399,23.856C27.504,14.723 38.43,9.379 50.001,9.379C61.572,9.379 72.497,14.722 79.603,23.856C86.704,32.988 89.197,44.891 86.349,56.106C83.501,67.325 75.634,76.598 65.033,81.235L64.72,84.719C76.587,80.11 85.607,70.199 89.083,57.949C92.56,45.699 90.091,32.527 82.411,22.371C74.732,12.215 62.735,6.246 50.001,6.25L50,6.25Z" style="fill:white;fill-rule:nonzero;"/>
            <path d="M50,22.391C56.633,22.391 62.984,25.086 67.598,29.856C72.207,34.621 74.688,41.059 74.473,47.688C74.254,54.321 71.356,60.579 66.438,65.032L66.063,69.313C72.446,64.747 76.586,57.68 77.446,49.879C78.301,42.078 75.801,34.277 70.563,28.434C65.325,22.586 57.848,19.247 50.001,19.247C42.154,19.247 34.677,22.586 29.439,28.434C24.201,34.278 21.701,42.079 22.556,49.879C23.416,57.68 27.556,64.746 33.939,69.313L33.564,65.032C28.646,60.579 25.748,54.321 25.529,47.688C25.314,41.059 27.795,34.622 32.404,29.856C37.017,25.086 43.369,22.391 50.002,22.391L50,22.391Z" style="fill:white;fill-rule:nonzero;"/>
            <path d="M39.984,40.359C39.976,44.41 42.414,48.07 46.156,49.625C49.898,51.179 54.207,50.324 57.078,47.461C59.945,44.597 60.804,40.289 59.254,36.547C57.707,32.8 54.051,30.359 50,30.359C44.476,30.363 40,34.836 39.984,40.359L39.984,40.359Z" style="fill:white;fill-rule:nonzero;"/>
            <path d="M55.688,54.688L44.313,54.688C42.126,54.692 40.04,55.61 38.559,57.223C37.083,58.837 36.344,60.993 36.532,63.172L38.829,89.469C39.024,91.895 41.051,93.759 43.485,93.751L56.516,93.751C58.95,93.758 60.977,91.895 61.172,89.469L63.469,63.172C63.657,60.993 62.918,58.837 61.442,57.223C59.961,55.61 57.875,54.692 55.688,54.688L55.688,54.688Z" style="fill:white;fill-rule:nonzero;"/>
        </g>
    </g>
</svg>
