<?xml version="1.0" encoding="UTF-8" standalone="no"?>
<!DOCTYPE svg PUBLIC "-//W3C//DTD SVG 1.1//EN" "http://www.w3.org/Graphics/SVG/1.1/DTD/svg11.dtd">
<svg width="100%" height="100%" viewBox="0 0 50 50" version="1.1" xmlns="http://www.w3.org/2000/svg" xmlns:xlink="http://www.w3.org/1999/xlink" xml:space="preserve" xmlns:serif="http://www.serif.com/" style="fill-rule:evenodd;clip-rule:evenodd;stroke-linecap:round;stroke-linejoin:round;stroke-miterlimit:1.5;">
    <g id="Globe" transform="matrix(1,0,0,1,1,0)">
        <g transform="matrix(0.958333,0,0,0.958333,0.0414713,1.04169)">
            <circle cx="24.995" cy="25" r="24" style="fill:none;stroke:rgb(78,78,78);stroke-width:4.17px;"/>
        </g>
        <g transform="matrix(0.52215,0,0,0.52215,-2.48159,-1.00123)">
            <path d="M50.707,1.918C24.344,1.918 2.828,23.434 2.828,49.797C2.828,76.16 24.344,97.676 50.707,97.676C77.07,97.676 98.586,76.16 98.586,49.797C98.586,23.434 77.07,1.918 50.707,1.918ZM50.707,93.637C26.566,93.637 6.867,73.942 6.867,49.797C6.867,43.637 8.179,37.879 10.402,32.524C10.402,33.333 10.504,34.141 10.805,35.047C11.207,35.958 11.308,37.067 11.308,37.977C11.308,39.188 11.812,39.696 13.125,39.594C13.226,38.383 13.328,37.071 13.629,35.755C14.84,35.856 15.246,36.462 15.75,36.965C15.851,39.489 16.152,41.813 16.254,44.239C16.355,45.348 16.656,45.958 17.566,46.665C19.383,48.079 21.305,49.391 23.121,50.805C24.23,51.715 24.433,52.622 23.223,53.836C22.312,54.946 21.406,55.856 20.496,56.766C19.082,58.282 19.183,58.282 19.992,60.301C21.203,63.333 22.922,65.754 26.355,66.262C27.062,66.465 27.164,66.766 27.164,67.473C27.164,69.997 27.062,72.422 27.469,74.848C28.074,78.989 28.883,83.032 29.691,87.172C29.894,88.586 31.105,88.082 31.914,88.184C32.117,88.184 32.723,87.578 32.824,87.172C33.328,85.453 33.836,83.739 34.238,82.02C34.543,81.008 34.945,80.102 35.855,79.395C37.672,78.184 39.086,76.465 39.793,74.344C40.398,72.528 41.609,71.313 43.73,71.211C44.641,71.211 45.043,70.707 45.449,69.899C46.156,68.586 46.66,67.172 47.57,66.16C48.883,64.645 49.289,62.93 49.289,60.907C49.289,60.199 49.086,59.797 48.277,59.492C46.156,58.582 44.035,57.676 41.914,56.867C41.004,56.465 40.703,55.957 40.703,55.051C40.703,54.446 40.399,53.535 39.996,53.235C36.156,51.114 32.422,48.489 27.672,49.395C26.965,49.598 26.661,49.192 26.661,48.383C26.559,47.473 26.356,46.364 26.258,45.352C25.754,45.555 25.45,45.754 25.047,45.856C24.645,45.957 24.239,46.258 23.836,46.36C23.129,46.664 21.715,46.055 21.715,45.348C21.715,43.731 22.219,42.215 23.532,41.207C24.743,40.196 26.157,40.098 27.469,40.903C28.379,41.407 29.188,42.317 30.094,43.125C30.196,43.024 30.497,42.821 30.903,42.723C30.801,42.622 30.801,42.418 30.801,42.321C29.993,39.594 30.801,38.383 33.731,37.875C34.036,37.875 34.336,37.571 34.438,37.473C35.852,35.657 37.368,33.633 38.782,31.817C37.872,31.11 37.165,30.504 36.258,29.797C37.469,28.786 38.481,27.676 39.692,26.665C37.169,24.442 34.844,22.422 32.317,20.2C32.012,22.723 31.711,24.946 31.305,27.169C30.294,27.571 29.891,27.27 29.586,26.36C29.485,26.055 29.083,25.348 28.778,25.348C27.161,25.247 26.254,24.438 25.747,23.126C25.254,21.719 25.657,20.204 26.669,19.192C27.172,18.485 27.981,17.88 28.79,17.173C26.973,16.669 25.254,16.063 23.739,15.255C25.458,13.942 27.172,12.731 28.993,11.719C28.79,12.223 28.489,12.731 28.286,13.235C29.395,14.446 30.407,15.458 31.821,15.254C32.93,15.051 33.637,15.559 34.344,16.266C35.962,17.782 37.477,19.297 39.09,20.711C39.493,21.114 39.797,21.418 40.505,21.016C41.212,20.614 41.313,20.309 41.212,19.602C40.907,17.883 40.708,16.168 40.403,14.45C40.403,14.047 40.2,13.641 39.899,13.54C37.575,12.629 36.567,10.915 36.868,8.286L36.766,8.286C41.11,6.77 45.856,5.961 50.704,5.961C59.392,5.961 67.372,8.485 74.239,12.829C73.634,12.93 73.028,13.032 72.321,13.231C69.392,14.141 67.677,16.364 68.079,18.786C68.888,18.786 69.595,18.887 70.302,18.481C71.313,17.977 72.021,18.079 72.927,18.786C72.22,19.594 71.513,20.504 70.806,21.309C71.208,22.016 71.716,22.825 72.22,23.735C70.2,23.735 68.481,23.735 66.36,23.938C65.45,23.735 64.946,24.04 64.642,24.95C64.138,26.465 63.431,27.981 62.923,29.395C62.618,30.305 62.216,30.708 61.204,30.708C60.395,30.708 59.485,30.911 58.579,31.012L58.579,37.477C62.114,36.266 65.649,35.254 69.388,34.043L69.388,39.196C71.407,38.489 73.126,37.985 74.841,37.477C74.439,36.164 74.032,34.852 73.63,33.637C73.63,33.536 73.732,33.332 73.732,33.235C74.439,33.539 75.247,33.637 75.751,34.043C77.165,35.356 78.478,36.567 80.599,35.762C80.701,35.762 80.904,35.864 81.001,35.864C80.9,37.278 80.599,38.793 80.599,40.208C80.599,41.016 80.701,41.926 81.103,42.633C82.314,45.157 83.728,47.786 85.04,50.309C85.345,50.711 85.544,51.118 85.849,51.622C88.372,50.208 90.595,48.895 93.122,47.481C92.212,46.876 91.505,45.965 90.599,45.665C89.388,45.36 88.783,44.958 88.376,43.946C88.173,43.442 87.771,42.735 87.466,42.227C86.556,40.61 86.556,40.61 87.868,39.801C89.384,41.114 90.9,42.426 92.212,43.84C92.818,44.344 93.322,44.75 94.232,44.649C94.435,46.368 94.536,48.083 94.536,49.801C94.548,73.938 74.848,93.637 50.708,93.637L50.707,93.637Z" style="fill:rgb(78,78,78);fill-rule:nonzero;"/>
        </g>
        <g transform="matrix(0.52215,0,0,0.52215,-2.48159,-1.00123)">
            <path d="M83.031,53.133C81.82,49.699 80.508,46.266 79.191,42.828C78.887,42.223 78.586,41.918 77.879,41.816C75.758,41.312 73.738,41.512 72.019,43.129C71.414,43.937 70.605,43.734 69.797,43.23C67.472,41.613 64.949,40.504 61.918,40.605C61.109,40.605 60.605,40.707 60.301,41.516C59.492,44.141 57.676,45.859 55.25,47.07C55.148,47.273 54.945,47.273 54.847,47.375C53.535,47.98 53.332,48.992 53.031,50.406C52.324,54.648 53.535,57.98 56.164,61.113C57.074,62.223 57.883,62.832 59.195,62.324C61.82,61.215 63.941,61.719 65.66,64.14C66.164,64.949 66.57,65.656 66.57,66.566C66.773,69.191 66.773,71.719 66.875,74.344C66.875,74.648 66.875,75.051 67.179,75.355C68.593,77.273 69.906,79.293 71.523,81.418C73.14,80.508 74.754,79.801 76.168,78.793C77.984,77.582 79.097,75.863 79.199,73.64C79.402,72.73 79.601,71.922 80.41,71.418C82.531,69.902 83.64,67.883 83.742,65.258C83.843,63.136 84.347,61.32 86.874,60.613C87.886,60.308 88.792,59.097 89.499,58.187C90.105,57.277 90.41,56.066 90.914,54.855C88.589,54.652 86.57,54.453 84.347,54.148C83.535,54.14 83.332,53.84 83.031,53.133L83.031,53.133Z" style="fill:rgb(78,78,78);fill-rule:nonzero;"/>
        </g>
    </g>
</svg>
