<?xml version="1.0" encoding="UTF-8" standalone="no"?>
<!DOCTYPE svg PUBLIC "-//W3C//DTD SVG 1.1//EN" "http://www.w3.org/Graphics/SVG/1.1/DTD/svg11.dtd">
<svg width="100%" height="100%" viewBox="0 0 50 50" version="1.1" xmlns="http://www.w3.org/2000/svg" xmlns:xlink="http://www.w3.org/1999/xlink" xml:space="preserve" xmlns:serif="http://www.serif.com/" style="fill-rule:evenodd;clip-rule:evenodd;stroke-linejoin:round;stroke-miterlimit:2;">
    <g id="Pause">
        <g transform="matrix(1,0,0,1,-37.75,-23.8952)">
            <path d="M58.9,65.28L54.13,65.28C53.307,65.28 52.63,64.603 52.63,63.78L52.63,34.1C52.63,33.277 53.307,32.6 54.13,32.6L58.9,32.6C59.723,32.6 60.4,33.277 60.4,34.1L60.4,63.78C60.4,64.603 59.723,65.28 58.9,65.28ZM54.13,33.6C53.858,33.605 53.635,33.828 53.63,34.1L53.63,63.78C53.63,64.054 53.856,64.28 54.13,64.28L58.9,64.28C59.174,64.28 59.4,64.054 59.4,63.78L59.4,34.1C59.395,33.828 59.172,33.605 58.9,33.6L54.13,33.6Z" style="fill:rgb(78,78,78);fill-rule:nonzero;"/>
        </g>
        <g transform="matrix(1,0,0,1.03226,0.265,-1.32258)">
            <path d="M20.929,10C21.213,10 21.485,10.109 21.686,10.304C21.887,10.499 22,10.763 22,11.038C22,15.765 22,35.235 22,39.962C22,40.237 21.887,40.501 21.686,40.696C21.485,40.891 21.213,41 20.929,41C19.611,41 17.389,41 16.071,41C15.787,41 15.515,40.891 15.314,40.696C15.113,40.501 15,40.237 15,39.962C15,35.235 15,15.765 15,11.038C15,10.763 15.113,10.499 15.314,10.304C15.515,10.109 15.787,10 16.071,10C17.389,10 19.611,10 20.929,10Z" style="fill:rgb(78,78,78);"/>
        </g>
        <g transform="matrix(1,0,0,1.03226,12.735,-1.32258)">
            <path d="M20.929,10C21.213,10 21.485,10.109 21.686,10.304C21.887,10.499 22,10.763 22,11.038C22,15.765 22,35.235 22,39.962C22,40.237 21.887,40.501 21.686,40.696C21.485,40.891 21.213,41 20.929,41C19.611,41 17.389,41 16.071,41C15.787,41 15.515,40.891 15.314,40.696C15.113,40.501 15,40.237 15,39.962C15,35.235 15,15.765 15,11.038C15,10.763 15.113,10.499 15.314,10.304C15.515,10.109 15.787,10 16.071,10C17.389,10 19.611,10 20.929,10Z" style="fill:rgb(78,78,78);"/>
        </g>
        <g transform="matrix(1,0,0,1,-37.75,-23.8952)">
            <path d="M71.37,65.28L66.6,65.28C65.777,65.28 65.1,64.603 65.1,63.78L65.1,34.1C65.1,33.277 65.777,32.6 66.6,32.6L71.37,32.6C72.193,32.6 72.87,33.277 72.87,34.1L72.87,63.78C72.87,64.603 72.193,65.28 71.37,65.28ZM66.6,33.6C66.328,33.605 66.105,33.828 66.1,34.1L66.1,63.78C66.1,64.054 66.326,64.28 66.6,64.28L71.37,64.28C71.644,64.28 71.87,64.054 71.87,63.78L71.87,34.1C71.865,33.828 71.642,33.605 71.37,33.6L66.6,33.6Z" style="fill:rgb(78,78,78);fill-rule:nonzero;"/>
        </g>
    </g>
</svg>
