<?xml version="1.0" encoding="UTF-8" standalone="no"?>
<!DOCTYPE svg PUBLIC "-//W3C//DTD SVG 1.1//EN" "http://www.w3.org/Graphics/SVG/1.1/DTD/svg11.dtd">
<svg width="100%" height="100%" viewBox="0 0 50 50" version="1.1" xmlns="http://www.w3.org/2000/svg" xmlns:xlink="http://www.w3.org/1999/xlink" xml:space="preserve" xmlns:serif="http://www.serif.com/" style="fill-rule:evenodd;clip-rule:evenodd;stroke-linejoin:round;stroke-miterlimit:2;">
    <g id="Unlocked" transform="matrix(0.815235,0,0,0.815235,-1.08793,-1.08671)">
        <path d="M32,1.333C22.599,1.333 14.845,8.291 13.547,17.333C13.533,17.334 13.522,17.335 13.5,17.333L13.469,17.869C13.389,18.57 13.334,19.277 13.334,19.999L13.334,22.666C10.388,22.666 8.001,25.066 8.001,27.999L8.001,57.332C8.001,60.265 10.389,62.665 13.334,62.665L50.667,62.665C53.614,62.665 56,60.265 56,57.332L56,27.999C56,25.066 53.613,22.666 50.667,22.666L21.334,22.666L21.334,19.999C21.334,19.263 21.442,18.527 21.584,17.832C21.795,16.802 22.18,15.844 22.662,14.947C22.774,14.74 22.875,14.526 23.001,14.327C23.189,14.027 23.405,13.752 23.621,13.473C23.807,13.235 23.989,12.996 24.194,12.775C24.399,12.554 24.618,12.348 24.84,12.145C25.114,11.895 25.4,11.658 25.699,11.437C25.907,11.283 26.12,11.133 26.34,10.994C26.68,10.78 27.038,10.591 27.403,10.416C27.626,10.309 27.844,10.196 28.075,10.103C28.49,9.938 28.923,9.814 29.361,9.702C29.563,9.65 29.758,9.581 29.965,9.541C30.625,9.413 31.304,9.333 32.001,9.333C36.969,9.333 41.064,12.735 42.251,17.333L50.418,17.333C49.119,8.293 41.401,1.333 32.001,1.333L32,1.333Z" style="fill:rgb(153,153,153);fill-rule:nonzero;"/>
    </g>
</svg>
