<?xml version="1.0" encoding="UTF-8" standalone="no"?>
<!DOCTYPE svg PUBLIC "-//W3C//DTD SVG 1.1//EN" "http://www.w3.org/Graphics/SVG/1.1/DTD/svg11.dtd">
<svg width="100%" height="100%" viewBox="0 0 50 50" version="1.1" xmlns="http://www.w3.org/2000/svg" xmlns:xlink="http://www.w3.org/1999/xlink" xml:space="preserve" xmlns:serif="http://www.serif.com/" style="fill-rule:evenodd;clip-rule:evenodd;stroke-linejoin:round;stroke-miterlimit:2;">
    <g id="Compass">
        <g transform="matrix(1,0,0,1,-7.27769,-3.46964)">
            <g transform="matrix(0.768782,-0.639511,0.639511,0.768782,-13.0864,14.3528)">
                <text x="13.306px" y="25.274px" style="font-family:'HelveticaNeue-CondensedBold', 'Helvetica Neue';font-weight:700;font-stretch:condensed;font-size:12.5px;fill:rgb(153,153,153);">W</text>
            </g>
            <g transform="matrix(0.990046,0.140745,-0.140745,0.990046,2.56486,-4.38449)">
                <text x="32.279px" y="15.941px" style="font-family:'HelveticaNeue-CondensedBold', 'Helvetica Neue';font-weight:700;font-stretch:condensed;font-size:12.5px;fill:rgb(153,153,153);">N</text>
            </g>
            <g transform="matrix(0.899353,0.437223,-0.437223,0.899353,11.3457,-15.5643)">
                <text x="39.48px" y="16.862px" style="font-family:'HelveticaNeue-CondensedBold', 'Helvetica Neue';font-weight:700;font-stretch:condensed;font-size:12.5px;fill:rgb(153,153,153);">W</text>
            </g>
        </g>
        <g transform="matrix(1.08506,0,0,1.26648,11.9793,18.3504)">
            <path d="M19.78,19.91C19.38,20.29 18.79,20.36 18.31,20.09L13.35,17.29C12.52,16.81 11.48,16.82 10.65,17.29L5.68,20.09C5.21,20.36 4.62,20.29 4.22,19.91C3.82,19.54 3.71,18.95 3.94,18.46L10.57,4.65C10.83,4.1 11.39,3.75 12,3.75C12.61,3.75 13.17,4.1 13.43,4.65L20.06,18.46C20.29,18.95 20.18,19.54 19.78,19.91Z" style="fill:rgb(153,153,153);fill-rule:nonzero;"/>
        </g>
    </g>
</svg>
