<?xml version="1.0" encoding="UTF-8" standalone="no"?>
<!DOCTYPE svg PUBLIC "-//W3C//DTD SVG 1.1//EN" "http://www.w3.org/Graphics/SVG/1.1/DTD/svg11.dtd">
<svg width="100%" height="100%" viewBox="0 0 50 50" version="1.1" xmlns="http://www.w3.org/2000/svg" xmlns:xlink="http://www.w3.org/1999/xlink" xml:space="preserve" xmlns:serif="http://www.serif.com/" style="fill-rule:evenodd;clip-rule:evenodd;stroke-linejoin:round;stroke-miterlimit:2;">
    <g id="Settings" transform="matrix(0.96,0,0,0.96,1,1)">
        <g transform="matrix(0.526336,0,0,0.526336,-1.31658,-1.31573)">
            <path d="M21.48,22.355L21.48,5.074C21.48,3.652 20.328,2.5 18.906,2.5L14.558,2.5C13.136,2.5 11.984,3.652 11.984,5.074L11.984,22.355C6.488,24.332 2.511,29.546 2.511,35.726C2.511,41.906 6.488,47.124 11.984,49.097L11.984,94.921C11.984,96.343 13.136,97.495 14.558,97.495L18.906,97.495C20.328,97.495 21.48,96.343 21.48,94.921L21.48,49.124C27,47.175 31.003,41.933 31.003,35.753C31.003,29.573 27.003,24.304 21.48,22.355Z" style="fill:rgb(78,78,78);fill-rule:nonzero;"/>
        </g>
        <g transform="matrix(0.526336,0,0,0.526336,-1.31658,-1.31573)">
            <path d="M54.734,50.848L54.734,5.075C54.734,3.653 53.582,2.501 52.16,2.501L47.812,2.501C46.39,2.501 45.238,3.653 45.238,5.075L45.238,50.848C39.742,52.825 35.765,58.039 35.765,64.219C35.765,70.399 39.742,75.617 45.238,77.59L45.238,94.922C45.238,96.344 46.39,97.496 47.812,97.496L52.16,97.496C53.582,97.496 54.734,96.344 54.734,94.922L54.734,77.594C60.254,75.645 64.257,70.403 64.257,64.223C64.257,58.043 60.257,52.797 54.734,50.848Z" style="fill:rgb(78,78,78);fill-rule:nonzero;"/>
        </g>
        <g transform="matrix(0.526336,0,0,0.526336,-1.31658,-1.31573)">
            <path d="M97.488,35.727C97.488,29.547 93.488,24.305 87.965,22.356L87.965,5.075C87.965,3.653 86.812,2.501 85.39,2.501L81.043,2.501C79.621,2.501 78.468,3.653 78.468,5.075L78.468,22.356C72.972,24.333 68.996,29.547 68.996,35.727C68.996,41.907 72.972,47.125 78.468,49.098L78.468,94.922C78.468,96.344 79.621,97.496 81.043,97.496L85.39,97.496C86.812,97.496 87.965,96.344 87.965,94.922L87.965,49.125C93.484,47.152 97.488,41.906 97.488,35.727Z" style="fill:rgb(78,78,78);fill-rule:nonzero;"/>
        </g>
    </g>
</svg>
