<?xml version="1.0" encoding="UTF-8" standalone="no"?>
<!DOCTYPE svg PUBLIC "-//W3C//DTD SVG 1.1//EN" "http://www.w3.org/Graphics/SVG/1.1/DTD/svg11.dtd">
<svg width="100%" height="100%" viewBox="0 0 50 50" version="1.1" xmlns="http://www.w3.org/2000/svg" xmlns:xlink="http://www.w3.org/1999/xlink" xml:space="preserve" xmlns:serif="http://www.serif.com/" style="fill-rule:evenodd;clip-rule:evenodd;stroke-linejoin:round;stroke-miterlimit:2;">
    <g id="Traffic" transform="matrix(0.666667,0,0,0.666667,-8.33816,-4.16643)">
        <path d="M58.472,81.25L41.527,81.25C38.805,81.25 36.188,80.168 34.262,78.238C32.332,76.313 31.25,73.695 31.25,70.973L31.25,16.528C31.25,13.805 32.332,11.188 34.262,9.262C36.188,7.332 38.805,6.25 41.527,6.25L58.472,6.25C61.195,6.25 63.812,7.332 65.738,9.262C67.668,11.188 68.75,13.805 68.75,16.528L68.75,70.973C68.75,73.695 67.668,76.312 65.738,78.238C63.812,80.168 61.195,81.25 58.472,81.25ZM58.473,12.5L41.528,12.5C40.458,12.5 39.434,12.926 38.68,13.68C37.926,14.434 37.501,15.461 37.501,16.527L37.501,70.972C37.501,72.039 37.926,73.066 38.68,73.82C39.434,74.574 40.458,75 41.528,75L58.473,75C59.543,75 60.567,74.574 61.321,73.82C62.075,73.066 62.5,72.039 62.5,70.972L62.5,16.527C62.5,15.461 62.075,14.434 61.321,13.68C60.567,12.926 59.543,12.5 58.473,12.5ZM50,56.25C53.449,56.25 56.25,59.051 56.25,62.5C56.25,65.953 53.449,68.75 50,68.75C46.551,68.75 43.75,65.953 43.75,62.5C43.75,59.051 46.551,56.25 50,56.25ZM50,37.5C53.449,37.5 56.25,40.301 56.25,43.75C56.25,47.199 53.449,50 50,50C46.551,50 43.75,47.199 43.75,43.75C43.75,40.301 46.551,37.5 50,37.5ZM50,18.75C53.449,18.75 56.25,21.551 56.25,25C56.25,28.449 53.449,31.25 50,31.25C46.551,31.25 43.75,28.449 43.75,25C43.75,21.551 46.551,18.75 50,18.75Z" style="fill:rgb(78,78,78);"/>
    </g>
</svg>
