<?xml version="1.0" encoding="UTF-8" standalone="no"?>
<!DOCTYPE svg PUBLIC "-//W3C//DTD SVG 1.1//EN" "http://www.w3.org/Graphics/SVG/1.1/DTD/svg11.dtd">
<svg width="100%" height="100%" viewBox="0 0 50 50" version="1.1" xmlns="http://www.w3.org/2000/svg" xmlns:xlink="http://www.w3.org/1999/xlink" xml:space="preserve" xmlns:serif="http://www.serif.com/" style="fill-rule:evenodd;clip-rule:evenodd;stroke-linejoin:round;stroke-miterlimit:2;">
    <g id="Lock" transform="matrix(0.815235,0,0,0.815235,-1.08793,-1.08671)">
        <g id="Icons">
            <path id="Lock1" serif:id="Lock" d="M32,1.333C22.593,1.333 14.836,8.226 13.547,17.333C13.533,17.334 13.522,17.335 13.5,17.333L13.469,17.838C13.388,18.548 13.334,19.266 13.334,19.999L13.334,22.666C10.388,22.666 8.001,25.066 8.001,27.999L8.001,57.332C8.001,60.265 10.389,62.665 13.334,62.665L50.667,62.665C53.614,62.665 56,60.265 56,57.332L56,27.999C56,25.066 53.613,22.666 50.667,22.666L50.667,19.999C50.667,19.265 50.613,18.548 50.532,17.838L50.501,17.333C50.479,17.335 50.468,17.334 50.454,17.333C49.165,8.226 41.408,1.333 32.001,1.333L32,1.333ZM32,9.333C32.736,9.333 33.457,9.41 34.151,9.552C37.623,10.266 40.479,12.672 41.828,15.859C42.096,16.494 42.306,17.158 42.448,17.849C42.591,18.545 42.667,19.263 42.667,20L42.667,22.667L21.334,22.667L21.334,20C21.334,19.264 21.442,18.528 21.584,17.833C21.785,16.848 22.154,15.932 22.605,15.067C22.742,14.808 22.865,14.542 23.022,14.296C23.184,14.039 23.371,13.803 23.553,13.562C23.771,13.276 23.995,12.996 24.241,12.734C24.414,12.549 24.597,12.375 24.783,12.203C25.089,11.92 25.409,11.653 25.747,11.406C25.93,11.272 26.113,11.137 26.304,11.015C26.676,10.778 27.069,10.575 27.471,10.385C27.662,10.294 27.847,10.193 28.044,10.114C28.478,9.939 28.933,9.814 29.393,9.697C29.585,9.648 29.769,9.579 29.966,9.541C30.626,9.413 31.305,9.333 32.002,9.333L32,9.333Z" style="fill:rgb(92,91,86);fill-rule:nonzero;"/>
        </g>
    </g>
</svg>
