<?xml version="1.0" encoding="UTF-8" standalone="no"?>
<!DOCTYPE svg PUBLIC "-//W3C//DTD SVG 1.1//EN" "http://www.w3.org/Graphics/SVG/1.1/DTD/svg11.dtd">
<svg width="100%" height="100%" viewBox="0 0 50 50" version="1.1" xmlns="http://www.w3.org/2000/svg" xmlns:xlink="http://www.w3.org/1999/xlink" xml:space="preserve" xmlns:serif="http://www.serif.com/" style="fill-rule:evenodd;clip-rule:evenodd;stroke-linecap:round;stroke-linejoin:round;stroke-miterlimit:1.5;">
    <g id="Icons">
    </g>
    <g>
        <g transform="matrix(1,0,0,1,-1.42208,0)">
            <circle cx="39.78" cy="10.962" r="1.264" style="fill:rgb(92,91,86);stroke:rgb(92,91,86);stroke-width:4.17px;"/>
        </g>
        <g transform="matrix(1,0,0,1,-29.0219,0)">
            <circle cx="39.78" cy="10.962" r="1.264" style="fill:rgb(92,91,86);stroke:rgb(92,91,86);stroke-width:4.17px;"/>
        </g>
        <g transform="matrix(1,0,0,1,-1.42208,28.6938)">
            <circle cx="39.78" cy="10.962" r="1.264" style="fill:rgb(92,91,86);stroke:rgb(92,91,86);stroke-width:4.17px;"/>
        </g>
        <g transform="matrix(1,0,0,1,-14.7805,33.5497)">
            <circle cx="39.78" cy="10.962" r="1.264" style="fill:rgb(92,91,86);stroke:rgb(92,91,86);stroke-width:4.17px;"/>
        </g>
        <g transform="matrix(1,0,0,1,-29.0219,28.6938)">
            <circle cx="39.78" cy="10.962" r="1.264" style="fill:rgb(92,91,86);stroke:rgb(92,91,86);stroke-width:4.17px;"/>
        </g>
        <g transform="matrix(1,0,0,1,-34.8486,14.0382)">
            <circle cx="39.78" cy="10.962" r="1.264" style="fill:rgb(92,91,86);stroke:rgb(92,91,86);stroke-width:4.17px;"/>
        </g>
        <g transform="matrix(1,0,0,1,5.28766,14.0382)">
            <circle cx="39.78" cy="10.962" r="1.264" style="fill:rgb(92,91,86);stroke:rgb(92,91,86);stroke-width:4.17px;"/>
        </g>
        <g transform="matrix(0.916244,0,0,0.916244,2.09391,2.09391)">
            <circle cx="25" cy="25" r="8.969" style="fill:none;stroke:rgb(92,91,86);stroke-width:4.17px;"/>
        </g>
        <g transform="matrix(1,0,0,0.95083,0.559339,1.42321)">
            <rect x="22.019" y="6.8" width="4.844" height="9.123" style="fill:rgb(92,91,86);stroke:rgb(92,91,86);stroke-width:4.17px;"/>
        </g>
    </g>
</svg>
