<?xml version="1.0" encoding="UTF-8" standalone="no"?>
<!DOCTYPE svg PUBLIC "-//W3C//DTD SVG 1.1//EN" "http://www.w3.org/Graphics/SVG/1.1/DTD/svg11.dtd">
<svg width="100%" height="100%" viewBox="0 0 50 50" version="1.1" xmlns="http://www.w3.org/2000/svg" xmlns:xlink="http://www.w3.org/1999/xlink" xml:space="preserve" xmlns:serif="http://www.serif.com/" style="fill-rule:evenodd;clip-rule:evenodd;stroke-linejoin:round;stroke-miterlimit:2;">
    <g id="Volume" transform="matrix(0.745768,0,0,0.745768,1.49154,1.13371)">
        <g transform="matrix(1.26994,0,0,1.26994,-13.6911,-8.63859)">
            <path d="M52.86,12.7C52.01,12 50.75,12.12 50.05,12.97C49.35,13.82 49.47,15.08 50.32,15.79C55.2,19.8 58,25.71 58,32C58,38.29 55.2,44.2 50.32,48.21C49.47,48.91 49.34,50.17 50.05,51.03C50.45,51.51 51.02,51.76 51.6,51.76C52.05,51.76 52.5,51.61 52.87,51.3C58.67,46.53 62,39.49 62,32C62,24.51 58.67,17.47 52.86,12.7Z" style="fill:white;fill-rule:nonzero;"/>
        </g>
        <g transform="matrix(1.26994,0,0,1.26994,-15.0244,-8.63859)">
            <path d="M47.78,18.87C46.93,18.17 45.67,18.29 44.97,19.15C44.27,20 44.39,21.26 45.25,21.96C48.27,24.45 50,28.11 50,32C50,35.89 48.27,39.55 45.24,42.03C44.39,42.73 44.26,43.99 44.96,44.84C45.36,45.32 45.93,45.57 46.51,45.57C46.96,45.57 47.41,45.42 47.78,45.12C51.73,41.88 54,37.1 54,32C54,26.9 51.73,22.12 47.78,18.87Z" style="fill:white;fill-rule:nonzero;"/>
        </g>
        <g transform="matrix(1.26994,0,0,1.26994,-16.3578,-8.63859)">
            <path d="M42.7,25.04C41.84,24.34 40.58,24.47 39.89,25.33C39.19,26.19 39.32,27.45 40.18,28.14C41.33,29.08 42,30.49 42,32C42,33.51 41.33,34.92 40.18,35.86C39.32,36.56 39.2,37.82 39.89,38.67C40.29,39.16 40.86,39.41 41.44,39.41C41.88,39.41 42.33,39.26 42.7,38.96C44.8,37.25 46,34.71 46,32C46,29.29 44.8,26.75 42.7,25.04Z" style="fill:white;fill-rule:nonzero;"/>
        </g>
        <g>
            <g transform="matrix(1,0,0,1,-4,0)">
                <path d="M32.87,10.2C32.18,9.87 31.36,9.95 30.76,10.43L17.31,21L8,21C4.69,21 2,23.69 2,27L2,37C2,40.31 4.69,43 8,43L17.31,43L30.77,53.57C31.12,53.85 31.56,54 32,54C32.3,54 32.6,53.93 32.87,53.8C33.56,53.46 34,52.77 34,52L34,12C34,11.23 33.56,10.54 32.87,10.2ZM30,47.88L19.24,39.42C18.88,39.15 18.45,39 18,39L8,39C6.9,39 6,38.1 6,37L6,27C6,25.9 6.9,25 8,25L18,25C18.45,25 18.88,24.85 19.24,24.57L30,16.12L30,47.88Z" style="fill:white;fill-rule:nonzero;"/>
            </g>
            <g transform="matrix(1.3409,0,0,1.3409,-2,-1.5202)">
                <rect x="2" y="17.979" width="20" height="14.036" style="fill:white;"/>
            </g>
            <g transform="matrix(1.3409,0,0,1.3409,-2,-1.5202)">
                <path d="M22,39L22,11L13,17.979L13,32.016L22,39Z" style="fill:white;"/>
            </g>
        </g>
    </g>
</svg>
