<?xml version="1.0" encoding="UTF-8" standalone="no"?>
<!DOCTYPE svg PUBLIC "-//W3C//DTD SVG 1.1//EN" "http://www.w3.org/Graphics/SVG/1.1/DTD/svg11.dtd">
<svg width="100%" height="100%" viewBox="0 0 50 50" version="1.1" xmlns="http://www.w3.org/2000/svg" xmlns:xlink="http://www.w3.org/1999/xlink" xml:space="preserve" xmlns:serif="http://www.serif.com/" style="fill-rule:evenodd;clip-rule:evenodd;stroke-linecap:round;stroke-linejoin:round;stroke-miterlimit:1.5;">
    <g id="App-Shelf" serif:id="App Shelf" transform="matrix(1,0,0,1,133.225,2.52889)">
        <g id="Apple-Music" serif:id="Apple Music" transform="matrix(1,0,0,1,-515.872,-628.549)">
            <g transform="matrix(1,0,0,1,-211.128,449.161)">
                <path d="M628.621,182C631.639,182 634.533,183.199 636.667,185.333C638.801,187.467 640,190.361 640,193.379L640,212.621C640,215.639 638.801,218.533 636.667,220.667C634.533,222.801 631.639,224 628.621,224L609.379,224C606.361,224 603.467,222.801 601.333,220.667C599.199,218.533 598,215.639 598,212.621L598,193.379C598,190.361 599.199,187.467 601.333,185.333C603.467,183.199 606.361,182 609.379,182L628.621,182Z" style="fill:rgb(243,0,69);"/>
            </g>
            <g>
                <circle cx="400" cy="662" r="3.5" style="fill:white;"/>
                <g transform="matrix(1,0,0,1,14,-3)">
                    <circle cx="400" cy="662" r="3.5" style="fill:white;"/>
                </g>
                <g transform="matrix(1,0,0,0.976744,0,14.907)">
                    <rect x="402" y="641" width="1.5" height="21.5" style="fill:white;"/>
                </g>
                <g transform="matrix(1,0,0,0.930233,14,42.7209)">
                    <rect x="402" y="641" width="1.5" height="21.5" style="fill:white;"/>
                </g>
                <path d="M417.5,638L402,641L402,647L417.5,644L417.5,638Z" style="fill:white;"/>
            </g>
        </g>
        <g id="Tidal">
            <g transform="matrix(1,0,0,1,-727,-179.388)">
                <path d="M628.621,182C631.639,182 634.533,183.199 636.667,185.333C638.801,187.467 640,190.361 640,193.379L640,212.621C640,215.639 638.801,218.533 636.667,220.667C634.533,222.801 631.639,224 628.621,224L609.379,224C606.361,224 603.467,222.801 601.333,220.667C599.199,218.533 598,215.639 598,212.621L598,193.379C598,190.361 599.199,187.467 601.333,185.333C603.467,183.199 606.361,182 609.379,182L628.621,182Z" style="stroke:rgb(153,153,153);stroke-width:0.42px;"/>
            </g>
            <g transform="matrix(1,0,0,1,-119.798,12.8984)">
                <path d="M12.012,3.992L8.008,7.996L4.004,3.992L0,7.996L4.004,12L8.008,7.996L12.012,12L8.008,16.004L12.012,20.008L16.016,16.004L12.012,12L16.016,7.996L12.012,3.992ZM16.042,7.996L20.021,4.017L24,7.996L20.021,11.975L16.042,7.996Z" style="fill:white;fill-rule:nonzero;"/>
            </g>
        </g>
    </g>
</svg>
