<?xml version="1.0" encoding="UTF-8" standalone="no"?>
<!DOCTYPE svg PUBLIC "-//W3C//DTD SVG 1.1//EN" "http://www.w3.org/Graphics/SVG/1.1/DTD/svg11.dtd">
<svg width="100%" height="100%" viewBox="0 0 50 50" version="1.1" xmlns="http://www.w3.org/2000/svg" xmlns:xlink="http://www.w3.org/1999/xlink" xml:space="preserve" xmlns:serif="http://www.serif.com/" style="fill-rule:evenodd;clip-rule:evenodd;stroke-linecap:round;stroke-linejoin:round;stroke-miterlimit:1.5;">
    <g id="Defrost-Front" serif:id="Defrost Front" transform="matrix(1,0,0,1,58.2251,435.706)">
        <g id="Apps">
            <g id="Defrost-Front1" serif:id="Defrost Front">
                <g transform="matrix(1,0,0,1,-58,-437)">
                    <path d="M14.568,31.318L10,20C18.832,12.468 28.571,10.636 40,20L35.312,30.475" style="fill:none;stroke:rgb(236,235,242);stroke-width:3.54px;"/>
                </g>
                <g transform="matrix(1,0,0,1,67.7052,-419.46)">
                    <g transform="matrix(1,0,0,1,-132,-2)">
                        <path d="M25,8.454C23.661,9.79 23.527,13.329 25.434,15.674C27.493,18.206 26.465,22.481 25,23.103" style="fill:none;stroke:rgb(236,235,242);stroke-width:3.13px;"/>
                    </g>
                    <g transform="matrix(1,0,0,1,-126,-2)">
                        <path d="M25,8.454C23.661,9.79 23.527,13.329 25.434,15.674C27.493,18.206 26.465,22.481 25,23.103" style="fill:none;stroke:rgb(236,235,242);stroke-width:3.13px;"/>
                    </g>
                    <g transform="matrix(1,0,0,1,-120,-2)">
                        <path d="M25,8.454C23.661,9.79 23.527,13.329 25.434,15.674C27.493,18.206 26.465,22.481 25,23.103" style="fill:none;stroke:rgb(236,235,242);stroke-width:3.13px;"/>
                    </g>
                </g>
            </g>
        </g>
    </g>
</svg>
