<?xml version="1.0" encoding="UTF-8" standalone="no"?>
<!DOCTYPE svg PUBLIC "-//W3C//DTD SVG 1.1//EN" "http://www.w3.org/Graphics/SVG/1.1/DTD/svg11.dtd">
<svg width="100%" height="100%" viewBox="0 0 50 50" version="1.1" xmlns="http://www.w3.org/2000/svg" xmlns:xlink="http://www.w3.org/1999/xlink" xml:space="preserve" xmlns:serif="http://www.serif.com/" style="fill-rule:evenodd;clip-rule:evenodd;stroke-linejoin:round;stroke-miterlimit:2;">
    <g id="Search" transform="matrix(0.792386,0,0,0.792386,-14.565,-14.5337)">
        <path d="M62,26C57.24,21.253 50.785,18.584 44.063,18.584C30.129,18.584 18.663,30.05 18.663,43.984C18.663,57.918 30.129,69.384 44.063,69.384C49.729,69.384 55.235,67.488 59.7,64L76.4,80.6C76.919,80.989 77.551,81.2 78.2,81.2C79.846,81.2 81.2,79.846 81.2,78.2C81.2,77.551 80.989,76.919 80.6,76.4L64,59.7C71.982,49.649 71.114,35.036 62,26ZM57.7,57.7C54.061,61.356 49.109,63.414 43.95,63.414C38.791,63.414 33.839,61.356 30.2,57.7C26.523,54.096 24.465,49.148 24.5,44C24.5,33.303 33.303,24.5 44,24.5C54.697,24.5 63.5,33.303 63.5,44C63.498,49.161 61.404,54.106 57.7,57.7Z" style="fill:rgb(78,78,78);fill-rule:nonzero;"/>
    </g>
</svg>
