<?xml version="1.0" encoding="UTF-8" standalone="no"?>
<!DOCTYPE svg PUBLIC "-//W3C//DTD SVG 1.1//EN" "http://www.w3.org/Graphics/SVG/1.1/DTD/svg11.dtd">
<svg width="100%" height="100%" viewBox="0 0 50 50" version="1.1" xmlns="http://www.w3.org/2000/svg" xmlns:xlink="http://www.w3.org/1999/xlink" xml:space="preserve" xmlns:serif="http://www.serif.com/" style="fill-rule:evenodd;clip-rule:evenodd;stroke-linejoin:round;stroke-miterlimit:2;">
    <g transform="matrix(0.583205,0,0,0.583205,-4.13127,-4.17977)">
        <path d="M51.4,7.2C34,6.4 19.7,20.2 19.7,37.4C19.7,40.1 20.1,42.7 20.7,45.2C23.6,56.9 42.4,83.8 48.2,92C49.1,93.2 50.8,93.2 51.7,92C57.6,83.8 76.3,57 79.2,45.2C79.9,42.7 80.2,40.1 80.2,37.4C80.3,21.3 67.5,7.9 51.4,7.2ZM50,52.2C41.8,52.2 35.2,45.6 35.2,37.4C35.2,29.2 41.8,22.6 50,22.6C58.2,22.6 64.8,29.2 64.8,37.4C64.8,45.6 58.2,52.2 50,52.2Z" style="fill:rgb(78,78,78);fill-rule:nonzero;"/>
    </g>
</svg>
