<?xml version="1.0" encoding="UTF-8" standalone="no"?>
<!DOCTYPE svg PUBLIC "-//W3C//DTD SVG 1.1//EN" "http://www.w3.org/Graphics/SVG/1.1/DTD/svg11.dtd">
<svg width="100%" height="100%" viewBox="0 0 50 50" version="1.1" xmlns="http://www.w3.org/2000/svg" xmlns:xlink="http://www.w3.org/1999/xlink" xml:space="preserve" xmlns:serif="http://www.serif.com/" style="fill-rule:evenodd;clip-rule:evenodd;stroke-linejoin:round;stroke-miterlimit:2;">
    <g id="Battery" transform="matrix(0.765394,0,0,0.765394,-16.935,-20.9234)">
        <g transform="matrix(1,0,0,1,5,10)">
            <path d="M19.2,36.695C18.055,36.699 17.126,37.625 17.126,38.773L17.126,61.23L17.126,61.226C17.126,62.375 18.055,63.3 19.2,63.304L75.223,63.304C76.371,63.3 77.297,62.375 77.301,61.226L77.301,38.773C77.297,37.625 76.371,36.699 75.223,36.695L19.2,36.695Z" style="fill:rgb(153,153,153);fill-rule:nonzero;"/>
        </g>
        <g transform="matrix(0.720853,0,0,1,10.4194,10)">
            <path d="M74.258,39.016L20.172,39.016C19.973,39.016 19.777,39.094 19.637,39.235C19.496,39.379 19.414,39.571 19.414,39.774L19.414,60.231L19.414,60.227C19.414,60.43 19.496,60.621 19.637,60.766C19.777,60.907 19.973,60.985 20.172,60.985L74.258,60.985C74.457,60.985 74.653,60.907 74.793,60.766C74.938,60.621 75.016,60.43 75.016,60.227L75.016,39.774C75.016,39.571 74.938,39.379 74.793,39.235C74.653,39.094 74.457,39.016 74.258,39.016L74.258,39.016Z" style="fill:rgb(78,78,78);fill-rule:nonzero;"/>
        </g>
        <g transform="matrix(1,0,0,1,2.17799,10)">
            <path d="M81.672,55.056L81.672,44.946C83.66,44.946 85.274,46.555 85.274,48.544L85.274,51.458C85.274,53.446 83.66,55.056 81.672,55.056Z" style="fill:rgb(153,153,153);fill-rule:nonzero;"/>
        </g>
    </g>
</svg>
