<?xml version="1.0" encoding="UTF-8" standalone="no"?>
<!DOCTYPE svg PUBLIC "-//W3C//DTD SVG 1.1//EN" "http://www.w3.org/Graphics/SVG/1.1/DTD/svg11.dtd">
<svg width="100%" height="100%" viewBox="0 0 50 50" version="1.1" xmlns="http://www.w3.org/2000/svg" xmlns:xlink="http://www.w3.org/1999/xlink" xml:space="preserve" xmlns:serif="http://www.serif.com/" style="fill-rule:evenodd;clip-rule:evenodd;stroke-linejoin:round;stroke-miterlimit:2;">
    <g id="Dynamics" transform="matrix(0.534591,0,0,0.534591,-1.50424,-1.31728)">
        <g id="Icons">
            <path id="Dynamics1" serif:id="Dynamics" d="M94.804,37.887L94.754,37.7C94.361,36.226 93.907,36.129 93.846,36.129L93.845,36.129C93.821,36.123 91.395,35.464 89.881,35.305C89.294,35.244 88.845,35.345 88.547,35.608C88.213,35.903 88.201,36.29 88.202,36.29L87.597,39.957L85.204,40.111C85.018,39.487 84.836,38.791 84.635,38.011C83.943,35.321 82.995,31.636 80.827,27.521C77.322,20.869 74.643,20.729 74.536,20.729L74.534,20.729C67.318,19.223 50.174,18.888 49.997,18.884C49.825,18.888 32.681,19.223 25.488,20.727C25.376,20.728 22.69,20.845 19.172,27.521C17.004,31.636 16.056,35.321 15.364,38.011C15.163,38.791 14.982,39.487 14.796,40.111L12.401,39.957L11.799,36.308C11.798,36.292 11.787,35.904 11.452,35.608C11.155,35.346 10.709,35.246 10.118,35.305C8.604,35.464 6.178,36.123 6.181,36.125C6.094,36.129 5.639,36.224 5.245,37.7L5.195,37.887C4.845,39.188 4.542,40.313 5.687,40.694C6.69,41.029 13.065,41.516 14.251,41.604C14.192,41.735 14.136,41.879 14.072,41.996C13.793,42.23 10.382,45.102 6.819,48.664L6.79,48.692L6.784,48.733C6.771,48.816 6.008,53.962 5.964,60.739L5.955,60.739C5.954,60.888 5.881,75.674 6.971,82.785C7.051,83.309 7.493,83.697 8.021,83.706L15.614,83.84L15.632,83.84C16.116,83.84 16.543,83.518 16.675,83.051C16.929,82.148 17.233,80.515 17.258,77.865C23.547,78.708 33.673,79.367 49.999,79.367C66.326,79.367 76.452,78.708 82.741,77.865C82.766,80.515 83.07,82.148 83.325,83.051C83.456,83.518 83.884,83.84 84.367,83.84L84.386,83.84L91.978,83.706C92.506,83.697 92.948,83.309 93.028,82.785C94.118,75.674 94.045,60.888 94.044,60.739L94.035,60.739C93.991,53.962 93.228,48.816 93.215,48.733L93.209,48.692L93.18,48.664C89.617,45.102 86.206,42.23 85.928,41.996C85.863,41.879 85.807,41.735 85.748,41.604C86.934,41.516 93.309,41.029 94.312,40.694C95.457,40.313 95.155,39.188 94.804,37.887ZM49.999,40.457C33.726,40.457 18.953,40.693 17.264,40.722C17.585,39.328 20.05,28.945 23.352,23.573C24.086,23.432 32.411,21.911 49.999,21.911C67.586,21.911 75.912,23.431 76.647,23.573C79.949,28.945 82.414,39.328 82.735,40.722C81.046,40.693 66.273,40.457 49.999,40.457ZM26.807,57.078C21.185,56.732 16.268,55.927 13.001,55.393C12.397,55.293 11.852,55.204 11.372,55.129C8.706,54.714 8.952,50.955 9.021,50.255C12.39,50.385 20.526,52.843 23.409,53.79C25.332,54.422 26.488,56.449 26.807,57.078ZM21.108,75.304C21.054,75.156 21.138,74.965 21.361,74.737C22.418,73.653 23.617,72.425 30.51,72.425L69.49,72.425C76.383,72.425 77.581,73.653 78.638,74.737C78.861,74.965 78.946,75.156 78.891,75.304C78.767,75.638 77.971,75.782 77.71,75.806C65.043,76.123 50.149,76.087 50,76.086L49.999,76.211L49.999,76.086C49.852,76.085 34.957,76.123 22.298,75.807C22.028,75.782 21.232,75.638 21.108,75.304ZM88.627,55.129C88.147,55.204 87.602,55.293 86.998,55.393C83.731,55.927 78.814,56.732 73.192,57.078C73.511,56.449 74.665,54.422 76.591,53.79C79.473,52.843 87.609,50.385 90.978,50.255C91.047,50.955 91.293,54.714 88.627,55.129Z" style="fill:rgb(92,91,86);fill-rule:nonzero;"/>
        </g>
    </g>
</svg>
